<svg width="22" height="22" viewBox="0 0 22 22" fill="#000000" xmlns="http://www.w3.org/2000/svg">
<path d="M1.21374 13.0598C0.926149 11.7015 0.926149 10.298 1.21374 8.93976C2.32374 9.06976 3.29374 8.70276 3.60974 7.93876C3.92674 7.17376 3.50174 6.22876 2.62374 5.53576C3.38078 4.37209 4.37306 3.3798 5.53674 2.62276C6.22874 3.49976 7.17474 3.92576 7.93974 3.60876C8.70474 3.29176 9.07174 2.32276 8.94074 1.21276C10.299 0.925173 11.7025 0.925173 13.0607 1.21276C12.9307 2.32276 13.2977 3.29276 14.0617 3.60876C14.8267 3.92576 15.7717 3.50076 16.4647 2.62276C17.6284 3.3798 18.6207 4.37209 19.3777 5.53576C18.5007 6.22776 18.0747 7.17376 18.3917 7.93876C18.7087 8.70376 19.6777 9.07076 20.7877 8.93976C21.0753 10.298 21.0753 11.7015 20.7877 13.0598C19.6777 12.9298 18.7077 13.2968 18.3917 14.0608C18.0747 14.8258 18.4997 15.7708 19.3777 16.4638C18.6207 17.6274 17.6284 18.6197 16.4647 19.3768C15.7727 18.4998 14.8267 18.0738 14.0617 18.3908C13.2967 18.7078 12.9297 19.6768 13.0607 20.7868C11.7025 21.0744 10.299 21.0744 8.94074 20.7868C9.07074 19.6768 8.70374 18.7068 7.93974 18.3908C7.17474 18.0738 6.22974 18.4988 5.53674 19.3768C4.37306 18.6197 3.38078 17.6274 2.62374 16.4638C3.50074 15.7718 3.92674 14.8258 3.60974 14.0608C3.29274 13.2958 2.32374 12.9288 1.21374 13.0598V13.0598ZM3.00074 11.2098C4.10074 11.5148 5.00774 12.2118 5.45774 13.2958C5.90674 14.3808 5.75774 15.5158 5.19574 16.5078C5.29174 16.6098 5.39074 16.7088 5.49274 16.8048C6.48574 16.2428 7.61974 16.0948 8.70474 16.5428C9.78874 16.9928 10.4857 17.8998 10.7907 18.9998C10.9307 19.0038 11.0707 19.0038 11.2107 18.9998C11.5157 17.8998 12.2127 16.9928 13.2967 16.5428C14.3817 16.0938 15.5167 16.2428 16.5087 16.8048C16.6107 16.7088 16.7097 16.6098 16.8057 16.5078C16.2437 15.5148 16.0957 14.3808 16.5437 13.2958C16.9937 12.2118 17.9007 11.5148 19.0007 11.2098C19.0047 11.0698 19.0047 10.9298 19.0007 10.7898C17.9007 10.4848 16.9937 9.78776 16.5437 8.70376C16.0947 7.61876 16.2437 6.48376 16.8057 5.49176C16.7094 5.39016 16.6103 5.29112 16.5087 5.19476C15.5157 5.75676 14.3817 5.90476 13.2967 5.45676C12.2127 5.00676 11.5157 4.09976 11.2107 2.99976C11.0708 2.99606 10.9307 2.99606 10.7907 2.99976C10.4857 4.09976 9.78874 5.00676 8.70474 5.45676C7.61974 5.90576 6.48474 5.75676 5.49274 5.19476C5.39074 5.29076 5.29174 5.38976 5.19574 5.49176C5.75774 6.48476 5.90574 7.61876 5.45774 8.70376C5.00774 9.78776 4.10074 10.4848 3.00074 10.7898C2.99674 10.9298 2.99674 11.0698 3.00074 11.2098V11.2098ZM11.0007 13.9998C10.2051 13.9998 9.44203 13.6837 8.87942 13.1211C8.31681 12.5585 8.00074 11.7954 8.00074 10.9998C8.00074 10.2041 8.31681 9.44105 8.87942 8.87844C9.44203 8.31583 10.2051 7.99976 11.0007 7.99976C11.7964 7.99976 12.5595 8.31583 13.1221 8.87844C13.6847 9.44105 14.0007 10.2041 14.0007 10.9998C14.0007 11.7954 13.6847 12.5585 13.1221 13.1211C12.5595 13.6837 11.7964 13.9998 11.0007 13.9998ZM11.0007 11.9998C11.266 11.9998 11.5203 11.8944 11.7078 11.7069C11.8954 11.5193 12.0007 11.265 12.0007 10.9998C12.0007 10.7345 11.8954 10.4802 11.7078 10.2927C11.5203 10.1051 11.266 9.99976 11.0007 9.99976C10.7355 9.99976 10.4812 10.1051 10.2936 10.2927C10.1061 10.4802 10.0007 10.7345 10.0007 10.9998C10.0007 11.265 10.1061 11.5193 10.2936 11.7069C10.4812 11.8944 10.7355 11.9998 11.0007 11.9998V11.9998Z" />
</svg>
