<svg width="20" height="21" viewBox="0 0 20 21" fill="#000000" xmlns="http://www.w3.org/2000/svg">
<path d="M5 5.3584V1.3584C5 1.09318 5.10536 0.838828 5.29289 0.651292C5.48043 0.463755 5.73478 0.358398 6 0.358398H19C19.2652 0.358398 19.5196 0.463755 19.7071 0.651292C19.8946 0.838828 20 1.09318 20 1.3584V14.3584C20 14.6236 19.8946 14.878 19.7071 15.0655C19.5196 15.253 19.2652 15.3584 19 15.3584H15V19.3514C15 19.9074 14.551 20.3584 13.993 20.3584H1.007C0.874722 20.3585 0.743717 20.3326 0.621483 20.282C0.499248 20.2315 0.388185 20.1573 0.294651 20.0637C0.201116 19.9702 0.126946 19.8591 0.0763858 19.7369C0.0258259 19.6147 -0.000131057 19.4837 4.9756e-07 19.3514L0.00300052 6.3654C0.00300052 5.8094 0.452 5.3584 1.01 5.3584H5ZM7 5.3584H13.993C14.549 5.3584 15 5.8074 15 6.3654V13.3584H18V2.3584H7V5.3584ZM13 7.3584H2.003L2 18.3584H13V7.3584ZM6.503 16.3584L2.967 12.8224L4.381 11.4084L6.503 13.5304L10.745 9.2874L12.159 10.7014L6.503 16.3584Z" />
</svg>
