<svg width="20" height="21" viewBox="0 0 20 21" fill="#000000" xmlns="http://www.w3.org/2000/svg">
<path d="M10 18.75C12.1217 18.75 14.1566 17.9071 15.6569 16.4069C17.1571 14.9066 18 12.8717 18 10.75C18 8.62827 17.1571 6.59344 15.6569 5.09315C14.1566 3.59285 12.1217 2.75 10 2.75C7.87827 2.75 5.84344 3.59285 4.34315 5.09315C2.84285 6.59344 2 8.62827 2 10.75C2 12.8717 2.84285 14.9066 4.34315 16.4069C5.84344 17.9071 7.87827 18.75 10 18.75ZM10 20.75C4.477 20.75 0 16.273 0 10.75C0 5.227 4.477 0.75 10 0.75C15.523 0.75 20 5.227 20 10.75C20 16.273 15.523 20.75 10 20.75ZM10 12.75C10.5304 12.75 11.0391 12.5393 11.4142 12.1642C11.7893 11.7891 12 11.2804 12 10.75C12 10.2196 11.7893 9.71086 11.4142 9.33579C11.0391 8.96071 10.5304 8.75 10 8.75C9.46957 8.75 8.96086 8.96071 8.58579 9.33579C8.21071 9.71086 8 10.2196 8 10.75C8 11.2804 8.21071 11.7891 8.58579 12.1642C8.96086 12.5393 9.46957 12.75 10 12.75ZM10 14.75C8.93913 14.75 7.92172 14.3286 7.17157 13.5784C6.42143 12.8283 6 11.8109 6 10.75C6 9.68913 6.42143 8.67172 7.17157 7.92157C7.92172 7.17143 8.93913 6.75 10 6.75C11.0609 6.75 12.0783 7.17143 12.8284 7.92157C13.5786 8.67172 14 9.68913 14 10.75C14 11.8109 13.5786 12.8283 12.8284 13.5784C12.0783 14.3286 11.0609 14.75 10 14.75Z" />
</svg>
