<svg width="19" height="20" viewBox="0 0 19 20" fill="#000000" xmlns="http://www.w3.org/2000/svg">
<path d="M12.8273 5.75689L7.17131 11.4139C7.0758 11.5061 6.99962 11.6165 6.94721 11.7385C6.8948 11.8605 6.86721 11.9917 6.86606 12.1245C6.86491 12.2573 6.89021 12.3889 6.94049 12.5118C6.99077 12.6347 7.06502 12.7464 7.15892 12.8403C7.25281 12.9342 7.36446 13.0084 7.48736 13.0587C7.61025 13.109 7.74193 13.1343 7.87471 13.1331C8.00749 13.132 8.13871 13.1044 8.26071 13.052C8.38272 12.9996 8.49306 12.9234 8.58531 12.8279L14.2423 7.17189C14.805 6.60923 15.1211 5.8461 15.1211 5.05039C15.1211 4.25467 14.805 3.49154 14.2423 2.92889C13.6797 2.36623 12.9165 2.05013 12.1208 2.05013C11.3251 2.05013 10.562 2.36623 9.99931 2.92889L4.34231 8.58589C3.86839 9.04802 3.49094 9.59965 3.23187 10.2088C2.9728 10.8179 2.83726 11.4724 2.83311 12.1344C2.82896 12.7963 2.95629 13.4525 3.20771 14.0648C3.45913 14.6771 3.82963 15.2334 4.29773 15.7015C4.76582 16.1695 5.32219 16.5399 5.93456 16.7913C6.54694 17.0426 7.20312 17.1698 7.86505 17.1656C8.52697 17.1614 9.18147 17.0257 9.79057 16.7666C10.3997 16.5074 10.9512 16.1299 11.4133 15.6559L17.0703 9.99989L18.4843 11.4139L12.8273 17.0709C12.1773 17.7209 11.4056 18.2366 10.5562 18.5884C9.70691 18.9402 8.79661 19.1212 7.87731 19.1212C6.95801 19.1212 6.04771 18.9402 5.19839 18.5884C4.34907 18.2366 3.57735 17.7209 2.92731 17.0709C2.27727 16.4208 1.76162 15.6491 1.40982 14.7998C1.05802 13.9505 0.876953 13.0402 0.876953 12.1209C0.876953 11.2016 1.05802 10.2913 1.40982 9.44197C1.76162 8.59264 2.27727 7.82093 2.92731 7.17089L8.58531 1.51489C9.52832 0.604097 10.7913 0.100125 12.1023 0.111517C13.4133 0.122909 14.6674 0.648754 15.5944 1.57579C16.5214 2.50284 17.0473 3.7569 17.0587 5.06788C17.0701 6.37887 16.5661 7.64188 15.6553 8.58489L9.99931 14.2439C9.72065 14.5225 9.38983 14.7435 9.02577 14.8942C8.6617 15.045 8.2715 15.1225 7.87746 15.1225C7.48341 15.1224 7.09323 15.0448 6.7292 14.894C6.36517 14.7431 6.03441 14.5221 5.75581 14.2434C5.47721 13.9647 5.25623 13.6339 5.10547 13.2698C4.95472 12.9058 4.87716 12.5156 4.8772 12.1215C4.87725 11.7275 4.95491 11.3373 5.10575 10.9733C5.25658 10.6092 5.47765 10.2785 5.75631 9.99989L11.4133 4.34289L12.8273 5.75689Z"/>
</svg>
