<svg width="178" height="238" viewBox="0 0 178 238" fill="none" xmlns="http://www.w3.org/2000/svg">
<g clip-path="url(#clip0_0_7683)">
<path d="M16.3231 237.938C12.8685 237.938 9.93207 237.421 7.51383 236.388C5.09558 235.355 3.19554 233.805 1.90005 231.738C0.604561 229.671 0 227.088 0 223.988C0 220.889 0.604561 218.305 1.90005 216.239C3.19554 214.172 5.00922 212.622 7.51383 211.589C9.93207 210.556 12.8685 210.039 16.3231 210.039C18.4823 210.039 20.4687 210.297 22.2824 210.728C24.0961 211.158 25.737 211.847 27.1189 212.794C28.5007 213.742 29.6235 214.861 30.4008 216.239C31.1781 217.616 31.5235 219.166 31.5235 220.975H24.5279C24.5279 219.769 24.1824 218.736 23.4051 217.961C22.6279 217.1 21.6778 216.497 20.3823 216.067C19.1732 215.636 17.7914 215.464 16.3231 215.464C14.4231 215.464 12.7821 215.808 11.4867 216.411C10.1048 217.014 9.06841 217.875 8.37749 219.08C7.68656 220.286 7.25473 221.75 7.25473 223.472V224.505C7.25473 226.227 7.60019 227.691 8.37749 228.897C9.15478 230.102 10.1912 230.963 11.573 231.652C12.9549 232.255 14.6822 232.599 16.5822 232.599C18.0505 232.599 19.3459 232.341 20.6414 231.91C21.8506 231.48 22.8869 230.791 23.6642 229.93C24.4415 229.069 24.787 228.122 24.787 226.916H31.5235C31.5235 228.724 31.0917 230.36 30.3144 231.738C29.5371 233.116 28.4144 234.235 27.0325 235.182C25.6507 236.13 24.0097 236.732 22.196 237.249C20.4687 237.766 18.4823 237.938 16.3231 237.938Z" fill="#2E9C3E"/>
<path d="M53.2873 237.938C49.8327 237.938 46.8962 237.421 44.3916 236.474C41.887 235.527 39.987 233.977 38.6915 231.91C37.3096 229.844 36.7051 227.26 36.7051 224.074C36.7051 220.974 37.396 218.391 38.6915 216.325C39.987 214.258 41.887 212.708 44.3916 211.675C46.8099 210.642 49.7463 210.125 53.1146 210.125C56.6556 210.125 59.592 210.642 62.0103 211.675C64.4285 212.708 66.2422 214.172 67.4513 216.152C68.6604 218.133 69.265 220.544 69.265 223.299V225.71H43.9598C44.0462 227.346 44.478 228.638 45.3417 229.671C46.119 230.705 47.2417 231.393 48.6236 231.824C50.0054 232.255 51.6464 232.513 53.4601 232.513C54.2373 232.513 55.0146 232.427 55.9647 232.255C56.9147 232.082 57.7783 231.824 58.642 231.48C59.5057 231.135 60.1966 230.705 60.8011 230.102C61.4057 229.585 61.7512 228.896 61.8375 228.035H68.9195C68.9195 229.413 68.5741 230.618 67.8831 231.824C67.1922 233.029 66.1558 234.063 64.8603 234.924C63.4785 235.785 61.8375 236.474 59.9375 236.99C57.9511 237.679 55.7919 237.938 53.2873 237.938ZM43.9598 221.147H61.8375C61.8375 220.2 61.5784 219.338 61.1466 218.65C60.7148 217.961 60.0239 217.358 59.2466 216.927C58.4693 216.497 57.5192 216.152 56.4829 215.894C55.4465 215.636 54.3237 215.55 53.1146 215.55C51.3873 215.55 49.8327 215.722 48.5372 216.152C47.2417 216.583 46.119 217.186 45.3417 218.047C44.5644 218.908 44.1325 219.941 43.9598 221.147Z" fill="#2E9C3E"/>
<path d="M126.353 237.938C122.985 237.938 120.048 237.421 117.544 236.388C115.125 235.354 113.225 233.804 111.93 231.738C110.634 229.671 109.943 227.088 109.943 224.074C109.943 220.974 110.634 218.391 111.93 216.325C113.225 214.258 115.125 212.708 117.544 211.675C119.962 210.642 122.898 210.125 126.353 210.125C129.721 210.125 132.658 210.642 135.162 211.675C137.58 212.708 139.48 214.258 140.776 216.325C142.071 218.391 142.762 220.974 142.762 224.074C142.762 227.174 142.071 229.671 140.776 231.738C139.48 233.804 137.58 235.354 135.162 236.388C132.744 237.421 129.808 237.938 126.353 237.938ZM126.353 232.599C128.253 232.599 129.894 232.255 131.189 231.652C132.571 231.049 133.608 230.102 134.299 228.896C134.989 227.691 135.421 226.227 135.421 224.505V223.472C135.421 221.749 135.076 220.286 134.299 219.08C133.608 217.875 132.571 217.014 131.189 216.411C129.808 215.808 128.167 215.464 126.353 215.464C124.453 215.464 122.812 215.808 121.516 216.411C120.221 217.014 119.098 217.875 118.407 219.08C117.716 220.286 117.284 221.749 117.284 223.472V224.505C117.284 226.227 117.63 227.691 118.407 228.896C119.098 230.102 120.135 230.963 121.516 231.652C122.898 232.255 124.539 232.599 126.353 232.599Z" fill="#2E9C3E"/>
<path d="M148.809 237.335V210.814H154.941V215.377H155.372C156.322 214.086 157.445 213.052 158.741 212.278C159.95 211.503 161.332 210.986 162.713 210.728C164.095 210.383 165.477 210.211 166.773 210.211C169.277 210.211 171.35 210.555 172.991 211.33C174.632 212.105 175.927 213.311 176.791 214.861C177.655 216.411 178.087 218.477 178.087 220.888V237.335H171.091V222.094C171.091 220.974 170.918 220.027 170.573 219.166C170.227 218.391 169.795 217.788 169.191 217.272C168.586 216.841 167.895 216.497 167.032 216.238C166.168 216.066 165.304 215.894 164.268 215.894C162.8 215.894 161.418 216.238 160.123 216.841C158.827 217.444 157.791 218.305 156.927 219.338C156.15 220.372 155.718 221.663 155.718 223.127V237.249H148.809V237.335Z" fill="#2E9C3E"/>
<path d="M84.8112 210.814V207.456C84.8112 206.94 85.2431 206.509 85.7613 206.509H92.4114V200.912H83.9476C80.5793 200.912 77.902 203.581 77.902 206.94V210.814H72.4609V216.239H77.902V237.421H84.8976V216.239H96.9888V210.814H84.8112Z" fill="#2E9C3E"/>
<path d="M103.984 210.814H96.9883V237.335H103.984V210.814Z" fill="#2E9C3E"/>
<path d="M64.515 5.94141L55.9647 17.3075L44.5645 15.6715L51.301 11.5384L63.9968 6.11362L64.515 5.94141Z" fill="#5CB24A"/>
<path d="M46.3788 93.8572L29.3647 80.0801L27.8965 53.473L42.1468 47.3594L46.3788 93.8572Z" fill="#4B923D"/>
<path d="M29.3632 80.0798L21.5039 65.5277L27.895 53.4727L29.3632 80.0798Z" fill="#5CB24A"/>
<path d="M27.8964 53.4728L21.5053 65.5278L9.41406 49.4258L27.8964 53.4728Z" fill="#529F42"/>
<path d="M34.2002 27.8992L27.8955 53.473L9.41322 49.426L3.28125 44.9484L33.3366 22.5605L34.2002 27.8992Z" fill="#5CB24A"/>
<path d="M44.5635 15.6719L43.7862 25.7464L34.1996 27.8991L33.3359 22.5604L44.5635 15.6719Z" fill="#4B923D"/>
<path d="M89.0421 92.9104L72.5462 88.0023L59.6777 79.3916L62.0096 74.2251L65.637 65.7867L69.4371 57.0898L89.0421 92.9104Z" fill="#5CB24A"/>
<path d="M72.5462 88.0013L69.0052 88.4319L59.7641 83.0071L59.6777 79.3906L72.5462 88.0013Z" fill="#2E6126"/>
<path d="M73.2368 96.6126L70.3867 94.546V91.0156L72.805 91.4462L73.2368 96.6126Z" fill="#2E6126"/>
<path d="M89.0428 117.967L76.5197 132.261L73.2378 96.6127L72.806 91.4462L72.5469 88.002L89.0428 117.967Z" fill="#5CB24A"/>
<path d="M89.0426 161.794V161.881L78.6787 156.284V156.111L76.5195 132.26L89.0426 161.794Z" fill="#4B923D"/>
<path d="M89.0416 161.882V179.276L81.0096 172.646L78.6777 156.285L89.0416 161.882Z" fill="#5CB24A"/>
<path d="M89.0416 0L67.5365 7.92185L64.5137 5.94139L85.5006 0H89.0416Z" fill="#529F42"/>
<path d="M89.0417 0V18.5991L52.6816 30.1375L54.9272 26.6932L67.5366 7.92185L89.0417 0Z" fill="#5CB24A"/>
<path d="M89.0428 18.5996V57.1756L69.4378 57.0895L67.0195 34.96L89.0428 18.5996Z" fill="#5CB24A"/>
<path d="M89.0426 57.1759V92.9104L69.4375 57.0898L89.0426 57.1759Z" fill="#529F42"/>
<path d="M89.0426 117.967V161.795L76.5195 132.261L89.0426 117.967Z" fill="#529F42"/>
<path d="M89.0428 92.9101V117.967L72.5469 88.002L89.0428 92.9101Z" fill="#4B923D"/>
<path d="M69.4368 57.0884L65.6367 65.7852L67.0186 56.8301L69.4368 57.0884Z" fill="#4B923D"/>
<path d="M65.6371 65.7857L62.0098 74.2242L65.0326 64.4941L65.6371 65.7857Z" fill="#2E6126"/>
<path d="M65.032 64.4941L62.0092 74.2242L61.0591 73.3632L46.377 93.8567L65.032 64.4941Z" fill="#2E6126"/>
<path d="M65.0334 64.4945L46.3784 93.857L42.1465 47.3592L53.1149 35.5625L53.5468 41.8483L65.0334 64.4945Z" fill="#529F42"/>
<path d="M53.1149 35.5626L42.1465 47.3593L43.7874 25.7464L44.5647 15.6719L52.6831 30.1379L53.1149 35.5626Z" fill="#5CB24A"/>
<path d="M67.5372 7.92187L54.9277 26.6932L55.9641 17.3075L64.5143 5.94141L67.5372 7.92187Z" fill="#4B923D"/>
<path d="M43.7878 25.7461L42.1469 47.359L27.8965 53.4726L34.2012 27.8988L43.7878 25.7461Z" fill="#529F42"/>
<path d="M67.0199 56.8312L65.6381 65.7864L59.8516 42.3652L67.0199 56.8312Z" fill="#5CB24A"/>
<path d="M65.6365 65.7851L65.032 64.4935L53.5453 41.8473L53.1135 35.5615L52.6816 30.1367L58.4681 39.5224L55.9635 41.0723L59.85 42.3639L65.6365 65.7851Z" fill="#4B923D"/>
<path d="M61.0604 39.2656L58.6422 41.0739H55.9648L58.4694 39.5239L61.0604 39.2656Z" fill="#3C7731"/>
<path d="M62.2699 43.1404L58.6426 41.0739L61.0608 39.2656L62.2699 43.1404Z" fill="#3C7731"/>
<path d="M55.9647 17.3079L54.9284 26.6936L52.6828 30.1379L44.5645 15.6719L55.9647 17.3079Z" fill="#529F42"/>
<path d="M89.0417 18.5996L67.0184 34.96L52.6816 30.138L89.0417 18.5996Z" fill="#4B923D"/>
<path d="M62.2695 43.1388L59.8513 42.3639L55.9648 41.0723H58.6422L62.2695 43.1388Z" fill="#2E6126"/>
<path d="M67.0184 34.9587L61.0591 39.2641L58.4681 39.5224L52.6816 30.1367L67.0184 34.9587Z" fill="#5CB24A"/>
<path d="M69.4382 57.0885L67.0199 56.8302L59.8516 42.3642L62.2698 43.1392L61.0607 39.2643L67.0199 34.959L69.4382 57.0885Z" fill="#529F42"/>
<path d="M63.7366 132.26L61.8365 158.092L60.541 138.287L63.7366 132.26Z" fill="#EDEDED"/>
<path d="M70.3867 94.5449L63.7366 132.26L60.541 138.287L60.8865 114.263L70.3867 94.5449Z" fill="#DADADA"/>
<path d="M70.387 91.0149V94.5452L60.8867 114.264L69.0051 88.4316L70.387 91.0149Z" fill="#DADADA"/>
<path d="M61.8368 158.093L55.3594 136.48L60.5413 138.289L61.8368 158.093Z" fill="#F6F6F6"/>
<path d="M60.8868 114.263L60.5413 138.287L55.3594 136.479L56.914 110.389L60.8868 114.263Z" fill="#F6F6F6"/>
<path d="M61.8369 84.2988L60.8869 114.264L56.9141 110.389L61.8369 84.2988Z" fill="#F6F6F6"/>
<path d="M72.806 91.4462L70.3877 91.0157L69.0059 88.4325L72.5469 88.002L72.806 91.4462Z" fill="#376F2D"/>
<path d="M61.8367 84.2988L60.8867 114.264L69.0051 88.432L61.8367 84.2988Z" fill="#EDEDED"/>
<path d="M113.57 5.94141L122.121 17.3075L133.434 15.6715L126.698 11.5384L114.002 6.11362L113.57 5.94141Z" fill="#5CB24A"/>
<path d="M131.621 93.8572L148.722 80.0801L150.103 53.473L135.939 47.3594L131.621 93.8572Z" fill="#4B923D"/>
<path d="M148.721 80.0798L156.494 65.5277L150.103 53.4727L148.721 80.0798Z" fill="#5CB24A"/>
<path d="M150.104 53.4728L156.495 65.5278L168.672 49.4258L150.104 53.4728Z" fill="#529F42"/>
<path d="M143.799 27.8992L150.104 53.473L168.672 49.426L174.804 44.9484L144.662 22.5605L143.799 27.8992Z" fill="#5CB24A"/>
<path d="M133.436 15.6719L134.213 25.7464L143.799 27.8991L144.663 22.5604L133.436 15.6719Z" fill="#4B923D"/>
<path d="M89.043 92.9104L105.452 88.0023L118.407 79.3916L116.075 74.2251L112.362 65.7867L108.562 57.0898L89.043 92.9104Z" fill="#5CB24A"/>
<path d="M105.451 88.0013L109.079 88.4319L118.32 83.0071L118.406 79.3906L105.451 88.0013Z" fill="#2E6126"/>
<path d="M104.762 96.6126L107.612 94.546V91.0156L105.194 91.4462L104.762 96.6126Z" fill="#2E6126"/>
<path d="M89.043 117.967L101.566 132.261L104.762 96.6127L105.193 91.4462L105.452 88.002L89.043 117.967Z" fill="#5CB24A"/>
<path d="M89.043 161.794V161.881L99.4069 156.284V156.111L101.566 132.26L89.043 161.794Z" fill="#4B923D"/>
<path d="M89.043 161.882V179.276L97.075 172.646L99.4069 156.285L89.043 161.882Z" fill="#5CB24A"/>
<path d="M89.043 0L110.548 7.92185L113.571 5.94139L92.4976 0H89.043Z" fill="#529F42"/>
<path d="M89.043 0V18.5991L125.403 30.1375L123.071 26.6932L110.548 7.92185L89.043 0Z" fill="#5CB24A"/>
<path d="M89.043 18.5996V57.1756L108.562 57.0895L111.066 34.96L89.043 18.5996Z" fill="#5CB24A"/>
<path d="M89.043 57.1759V92.9104L108.562 57.0898L89.043 57.1759Z" fill="#529F42"/>
<path d="M89.043 117.967V161.795L101.566 132.261L89.043 117.967Z" fill="#529F42"/>
<path d="M89.043 92.9101V117.967L105.452 88.002L89.043 92.9101Z" fill="#4B923D"/>
<path d="M108.561 57.0884L112.361 65.7852L111.065 56.8301L108.561 57.0884Z" fill="#4B923D"/>
<path d="M112.361 65.7857L116.075 74.2242L113.052 64.4941L112.361 65.7857Z" fill="#2E6126"/>
<path d="M113.053 64.4941L116.076 74.2242L117.026 73.3632L131.621 93.8567L113.053 64.4941Z" fill="#2E6126"/>
<path d="M113.053 64.4945L131.621 93.857L135.94 47.3592L124.971 35.5625L124.453 41.8483L113.053 64.4945Z" fill="#529F42"/>
<path d="M124.971 35.5626L135.939 47.3593L134.212 25.7464L133.435 15.6719L125.403 30.1379L124.971 35.5626Z" fill="#5CB24A"/>
<path d="M110.547 7.92187L123.07 26.6932L122.12 17.3075L113.57 5.94141L110.547 7.92187Z" fill="#4B923D"/>
<path d="M134.211 25.7461L135.938 47.359L150.102 53.4726L143.798 27.8988L134.211 25.7461Z" fill="#529F42"/>
<path d="M111.066 56.8312L112.362 65.7864L118.235 42.3652L111.066 56.8312Z" fill="#5CB24A"/>
<path d="M112.361 65.7851L113.052 64.4935L124.453 41.8473L124.971 35.5615L125.403 30.1367L119.53 39.5224L122.121 41.0723L118.234 42.3639L112.361 65.7851Z" fill="#4B923D"/>
<path d="M117.025 39.2656L119.444 41.0739H122.121L119.53 39.5239L117.025 39.2656Z" fill="#3C7731"/>
<path d="M115.816 43.1404L119.444 41.0739L117.026 39.2656L115.816 43.1404Z" fill="#3C7731"/>
<path d="M122.121 17.3079L123.071 26.6936L125.403 30.1379L133.435 15.6719L122.121 17.3079Z" fill="#529F42"/>
<path d="M89.043 18.5996L111.066 34.96L125.403 30.138L89.043 18.5996Z" fill="#4B923D"/>
<path d="M115.816 43.1388L118.235 42.3639L122.121 41.0723H119.444L115.816 43.1388Z" fill="#2E6126"/>
<path d="M111.066 34.9587L117.026 39.2641L119.53 39.5224L125.403 30.1367L111.066 34.9587Z" fill="#5CB24A"/>
<path d="M108.561 57.0885L111.065 56.8302L118.233 42.3642L115.815 43.1392L117.024 39.2643L111.065 34.959L108.561 57.0885Z" fill="#529F42"/>
<path d="M114.348 132.26L116.161 158.092L117.543 138.287L114.348 132.26Z" fill="#EDEDED"/>
<path d="M107.611 94.5449L114.348 132.26L117.543 138.287L117.198 114.263L107.611 94.5449Z" fill="#DADADA"/>
<path d="M107.611 91.0149V94.5452L117.198 114.264L109.08 88.4316L107.611 91.0149Z" fill="#DADADA"/>
<path d="M116.162 158.093L122.64 136.48L117.544 138.289L116.162 158.093Z" fill="#F6F6F6"/>
<path d="M117.197 114.263L117.543 138.287L122.638 136.479L121.17 110.389L117.197 114.263Z" fill="#F6F6F6"/>
<path d="M116.162 84.2988L117.198 114.264L121.171 110.389L116.162 84.2988Z" fill="#F6F6F6"/>
<path d="M105.193 91.4462L107.612 91.0157L109.08 88.4325L105.452 88.002L105.193 91.4462Z" fill="#376F2D"/>
<path d="M116.162 84.2988L117.198 114.264L109.08 88.432L116.162 84.2988Z" fill="#EDEDED"/>
</g>
<defs>
<clipPath id="clip0_0_7683">
<rect width="178" height="238" fill="white"/>
</clipPath>
</defs>
</svg>
