<svg width="200" height="200" viewBox="0 0 200 200" fill="none" xmlns="http://www.w3.org/2000/svg">
<g clip-path="url(#clip0_0_8555)">
<path d="M167.348 67.1438C164.085 63.8801 160.307 61.3145 156.131 59.4231C145.185 54.466 136.58 45.5922 131.743 34.593C122.791 14.2363 102.455 0.0179854 78.7948 1.66682e-05C47.814 -0.0234208 22.0909 24.6731 20.9249 55.632C20.4261 68.8828 24.3851 81.1871 31.421 91.1668C40.3573 103.842 42.6792 119.988 38.0698 134.796C31.5214 155.834 33.8046 175.771 46.2624 188.23C68.0937 210.061 112.898 200.653 146.335 167.216C179.771 133.779 189.18 88.9754 167.348 67.1438Z" fill="#2E9C3E" fill-opacity="0.15"/>
<path opacity="0.1" d="M130.652 186.133H55.7402C50.9715 186.133 47.1055 182.267 47.1055 177.498V30.7051C47.1055 25.9363 50.9715 22.0703 55.7402 22.0703H130.652C135.421 22.0703 139.287 25.9363 139.287 30.7051V177.498C139.287 182.267 135.421 186.133 130.652 186.133Z" fill="#244E2B"/>
<path opacity="0.1" d="M171.712 147.041H85.2539C83.0965 147.041 81.3477 145.292 81.3477 143.134V88.0859C81.3477 85.9285 83.0965 84.1797 85.2539 84.1797H171.712C173.87 84.1797 175.618 85.9285 175.618 88.0859V143.134C175.618 145.291 173.87 147.041 171.712 147.041Z" fill="#244E2B"/>
<path d="M144.151 56.675H135.744V30.5371H144.151C145.637 30.5371 146.841 31.7414 146.841 33.2266V53.9855C146.841 55.4711 145.637 56.675 144.151 56.675Z" fill="black"/>
<path d="M41.0118 83.5707H50.6493V30.5371H41.0118C39.5262 30.5371 39.5528 31.7414 39.5528 33.2266V80.8809C39.5528 82.3664 39.5266 83.5707 41.0118 83.5707Z" fill="black"/>
<path d="M130.652 177.93H55.7402C50.9715 177.93 47.1055 174.064 47.1055 169.295V22.502C47.1055 17.7332 50.9715 13.8672 55.7402 13.8672H130.652C135.421 13.8672 139.287 17.7332 139.287 22.502V169.295C139.287 174.064 135.421 177.93 130.652 177.93Z" fill="black"/>
<path d="M47.1055 34.2305H139.285V157.566H47.1055V34.2305Z" fill="black"/>
<path d="M72.6934 147.234H58.6309C57.552 147.234 56.6777 146.36 56.6777 145.281C56.6777 144.203 57.552 143.328 58.6309 143.328H72.6934C73.7723 143.328 74.6465 144.203 74.6465 145.281C74.6465 146.36 73.7723 147.234 72.6934 147.234Z" fill="#244E2B"/>
<path d="M72.6934 139.334H58.6309C57.552 139.334 56.6777 138.459 56.6777 137.381C56.6777 136.302 57.552 135.428 58.6309 135.428H72.6934C73.7723 135.428 74.6465 136.302 74.6465 137.381C74.6465 138.46 73.7723 139.334 72.6934 139.334Z" fill="#244E2B"/>
<path d="M93.1969 113.319C78.8887 113.319 67.248 101.678 67.248 87.3703C67.248 73.0625 78.8887 61.4219 93.1969 61.4219C107.505 61.4219 119.146 73.0625 119.146 87.3703C119.146 101.678 107.505 113.319 93.1969 113.319ZM93.1969 65.3277C81.0426 65.3277 71.1543 75.2156 71.1543 87.3699C71.1543 99.5242 81.0426 109.412 93.1969 109.412C105.351 109.412 115.239 99.5238 115.239 87.3699C115.239 75.216 105.351 65.3277 93.1969 65.3277Z" fill="#244E2B"/>
<path d="M93.1965 124.61C72.6629 124.61 55.957 107.904 55.957 87.3707C55.957 66.8371 72.6629 50.1309 93.1965 50.1309C113.73 50.1309 130.436 66.8367 130.436 87.3707C130.436 107.905 113.73 124.61 93.1965 124.61ZM93.1965 54.0371C74.8164 54.0371 59.8633 68.9902 59.8633 87.3707C59.8633 105.751 74.8164 120.704 93.1965 120.704C111.577 120.704 126.53 105.751 126.53 87.3707C126.53 68.9906 111.577 54.0371 93.1965 54.0371Z" fill="#244E2B"/>
<path d="M101.111 25.9766H85.2832C84.2043 25.9766 83.3301 25.102 83.3301 24.0234C83.3301 22.9449 84.2043 22.0703 85.2832 22.0703H101.111C102.19 22.0703 103.064 22.9449 103.064 24.0234C103.064 25.102 102.19 25.9766 101.111 25.9766Z" fill="#244E2B"/>
<path d="M85.2539 165.039V169.987C85.2539 171.066 86.1285 171.94 87.207 171.94H99.1863C100.265 171.94 101.139 171.066 101.139 169.987V165.039C101.139 163.961 100.265 163.086 99.1863 163.086H87.207C86.1281 163.086 85.2539 163.96 85.2539 165.039Z" fill="#2E9C3E"/>
<path d="M124.061 169.467H117.607C116.529 169.467 115.654 168.592 115.654 167.514C115.654 166.435 116.529 165.561 117.607 165.561H124.061C125.139 165.561 126.014 166.435 126.014 167.514C126.014 168.593 125.139 169.467 124.061 169.467Z" fill="#244E2B"/>
<path d="M68.7871 169.467H62.334C61.2551 169.467 60.3809 168.592 60.3809 167.514C60.3809 166.435 61.2551 165.561 62.334 165.561H68.7871C69.866 165.561 70.7402 166.435 70.7402 167.514C70.7402 168.593 69.866 169.467 68.7871 169.467Z" fill="#244E2B"/>
<path d="M171.712 140.009H85.2539C83.0965 140.009 81.3477 138.261 81.3477 136.103V81.0547C81.3477 78.8973 83.0965 77.1484 85.2539 77.1484H171.712C173.87 77.1484 175.618 78.8973 175.618 81.0547V136.103C175.618 138.26 173.87 140.009 171.712 140.009Z" fill="#2E9C3E"/>
<path d="M81.3477 87.3691H175.618V100.13H81.3477V87.3691Z" fill="black"/>
<path d="M109.6 130.711H92.998C91.9191 130.711 91.0449 129.836 91.0449 128.758C91.0449 127.679 91.9191 126.805 92.998 126.805H109.6C110.679 126.805 111.553 127.679 111.553 128.758C111.553 129.837 110.679 130.711 109.6 130.711Z" fill="#244E2B"/>
<path d="M97.5289 110.531H93C91.9211 110.531 91.0469 109.657 91.0469 108.578C91.0469 107.5 91.9211 106.625 93 106.625H97.5289C98.6078 106.625 99.482 107.5 99.482 108.578C99.482 109.657 98.6074 110.531 97.5289 110.531Z" fill="#244E2B"/>
<path d="M134.209 130.711H117.607C116.529 130.711 115.654 129.836 115.654 128.758C115.654 127.679 116.529 126.805 117.607 126.805H134.209C135.288 126.805 136.162 127.679 136.162 128.758C136.162 129.837 135.288 130.711 134.209 130.711Z" fill="#244E2B"/>
<path d="M123.662 122.811H92.998C91.9191 122.811 91.0449 121.936 91.0449 120.857C91.0449 119.779 91.9191 118.904 92.998 118.904H123.662C124.741 118.904 125.615 119.779 125.615 120.857C125.615 121.936 124.741 122.811 123.662 122.811Z" fill="#244E2B"/>
<path d="M164.058 114.439C163.559 114.439 163.058 114.248 162.678 113.867C161.915 113.104 161.915 111.868 162.678 111.105L166.584 107.199C167.346 106.436 168.583 106.436 169.346 107.199C170.108 107.962 170.108 109.198 169.346 109.961L165.439 113.867C165.058 114.248 164.558 114.439 164.058 114.439Z" fill="#244E2B"/>
<path d="M154.709 114.439C154.209 114.439 153.709 114.248 153.328 113.867C152.565 113.104 152.565 111.868 153.328 111.105L157.234 107.199C157.996 106.436 159.234 106.436 159.996 107.199C160.759 107.962 160.759 109.198 159.996 109.961L156.09 113.867C155.708 114.248 155.208 114.439 154.709 114.439Z" fill="#244E2B"/>
<path d="M145.359 114.439C144.86 114.439 144.359 114.248 143.978 113.867C143.216 113.104 143.216 111.868 143.978 111.105L147.885 107.199C148.647 106.436 149.884 106.436 150.646 107.199C151.409 107.962 151.409 109.198 150.646 109.961L146.74 113.867C146.359 114.248 145.859 114.439 145.359 114.439Z" fill="#244E2B"/>
<path d="M136.01 114.439C135.51 114.439 135.01 114.248 134.629 113.867C133.866 113.104 133.866 111.868 134.629 111.105L138.535 107.199C139.297 106.436 140.535 106.436 141.297 107.199C142.06 107.962 142.06 109.198 141.297 109.961L137.391 113.867C137.01 114.248 136.51 114.439 136.01 114.439Z" fill="#244E2B"/>
<path d="M171.713 75.1953H141.24V58.6289H144.152C146.712 58.6289 148.794 56.5465 148.794 53.9863V33.2273C148.794 30.6672 146.712 28.5848 144.152 28.5848H141.24V22.5039C141.24 16.6648 136.491 11.9141 130.653 11.9141H55.7395C49.9024 11.9141 45.1532 16.6648 45.1532 22.5039V28.5848H41.0121C39.5367 28.5848 38.4071 29.318 37.9129 30.5969C37.5992 31.409 37.5992 32.2949 37.5996 33.1516V80.9574C37.5992 81.8141 37.5992 82.7 37.9129 83.5121C38.4071 84.7906 39.5364 85.5242 41.0121 85.5242H45.1532V169.293C45.1532 175.132 49.902 179.883 55.7395 179.883H130.654C136.491 179.883 141.24 175.132 141.24 169.293V141.962H171.713C174.944 141.962 177.573 139.334 177.573 136.103V81.0547C177.572 77.8238 174.944 75.1953 171.713 75.1953ZM144.152 32.491C144.557 32.491 144.888 32.8215 144.888 33.2273V53.9863C144.888 54.3926 144.557 54.7227 144.152 54.7227H141.24V32.491H144.152ZM55.7395 15.8203H130.654C134.337 15.8203 137.334 18.8184 137.334 22.5039V32.2762H49.0598V22.5039C49.0598 18.8184 52.0563 15.8203 55.7395 15.8203ZM130.654 175.977H55.7395C52.0559 175.977 49.0594 172.979 49.0594 169.293V159.521H137.333V169.293C137.333 172.979 134.337 175.977 130.654 175.977ZM173.666 136.103C173.666 137.18 172.79 138.056 171.713 138.056H139.295C138.217 138.056 137.343 138.929 137.342 140.007L137.333 140.009V155.614H49.0598V83.5703C49.0598 82.4918 48.1856 81.6172 47.1067 81.6172C47.1035 81.6172 47.1004 81.618 47.0973 81.618H41.5137C41.5067 81.3992 41.5067 32.7094 41.5137 32.4906H45.1535V34.2328V55.2309C44.4133 55.5086 43.884 56.2172 43.884 57.0543C43.884 57.8914 44.4133 58.6 45.1535 58.8777V70.3438C45.1535 71.4223 46.0278 72.2969 47.1067 72.2969C48.1856 72.2969 49.0598 71.4223 49.0598 70.3438V36.1824H137.333V75.1953H85.2547C82.0239 75.1953 79.3953 77.8238 79.3953 81.0547V136.103C79.3953 139.334 82.0239 141.962 85.2547 141.962H126.014C127.093 141.962 127.967 141.088 127.967 140.009C127.967 138.93 127.093 138.056 126.014 138.056H85.2547C84.1778 138.056 83.3016 137.18 83.3016 136.103V81.0547C83.3016 79.9777 84.1778 79.1016 85.2547 79.1016H171.713C172.79 79.1016 173.666 79.9777 173.666 81.0547V136.103Z" fill="#244E2B"/>
<path d="M124.199 48.648L125.097 47.7504L125.995 48.648C126.377 49.0293 126.877 49.2199 127.376 49.2199C127.876 49.2199 128.376 49.0293 128.757 48.6476C129.52 47.8848 129.52 46.6484 128.757 45.8855L126.478 43.607C125.716 42.8445 124.478 42.8445 123.716 43.607L121.437 45.8855C120.675 46.6484 120.675 47.8848 121.437 48.6476C122.2 49.4109 123.437 49.4105 124.199 48.648Z" fill="#244E2B"/>
<path d="M156.664 65.691C156.164 65.691 155.664 65.5004 155.283 65.1191C154.52 64.3562 154.52 63.1195 155.283 62.357L159.189 58.4508C159.951 57.6883 161.189 57.6883 161.951 58.4508C162.714 59.2137 162.714 60.4504 161.951 61.2129L158.045 65.1191C157.664 65.5 157.164 65.691 156.664 65.691Z" fill="#2E9C3E"/>
<path d="M153.728 163.796C153.229 163.796 152.728 163.606 152.348 163.225C151.585 162.462 151.585 161.225 152.348 160.463L156.254 156.556C157.016 155.794 158.253 155.794 159.016 156.556C159.778 157.319 159.778 158.556 159.016 159.318L155.109 163.225C154.728 163.606 154.228 163.796 153.728 163.796Z" fill="#2E9C3E"/>
<path d="M24.3827 70.4605C23.8831 70.4605 23.3827 70.2699 23.0019 69.8887C22.239 69.1258 22.239 67.8891 23.0019 67.1266L26.9081 63.2203C27.6702 62.4578 28.9077 62.4578 29.6698 63.2203C30.4327 63.9832 30.4327 65.2199 29.6698 65.9824L25.7636 69.8887C25.3823 70.2699 24.8823 70.4605 24.3827 70.4605Z" fill="#2E9C3E"/>
<path d="M33.9042 135.439C33.4046 135.439 32.9042 135.248 32.5233 134.867L29.9979 132.342L27.4726 134.867C26.7105 135.63 25.4729 135.63 24.7108 134.867C23.9479 134.104 23.9479 132.868 24.7108 132.105L28.6171 128.199C29.3792 127.436 30.6167 127.436 31.3788 128.199L35.2851 132.105C36.0479 132.868 36.0479 134.105 35.2851 134.867C34.9038 135.248 34.4038 135.439 33.9042 135.439Z" fill="#2E9C3E"/>
<path d="M171.871 48.8961C171.371 48.8961 170.871 48.7055 170.49 48.3242L167.965 45.7992L165.439 48.3242C164.677 49.0867 163.44 49.0867 162.678 48.3242C161.915 47.5613 161.915 46.3246 162.678 45.5621L166.584 41.6559C167.346 40.8934 168.583 40.8934 169.346 41.6559L173.252 45.5621C174.015 46.325 174.015 47.5617 173.252 48.3242C172.871 48.7055 172.371 48.8961 171.871 48.8961Z" fill="#2E9C3E"/>
<path d="M115.239 103.352H92.998C91.9195 103.352 91.0449 102.477 91.0449 101.398V98.8633C91.0449 97.7848 91.9195 96.9102 92.998 96.9102H115.239C116.318 96.9102 117.193 97.7848 117.193 98.8633V101.398C117.193 102.477 116.318 103.352 115.239 103.352Z" fill="#244E2B"/>
</g>
<defs>
<clipPath id="clip0_0_8555">
<rect width="200" height="200" fill="white"/>
</clipPath>
</defs>
</svg>
