<svg width="200" height="200" viewBox="0 0 200 200" fill="none" xmlns="http://www.w3.org/2000/svg">
<g clip-path="url(#clip0_0_7859)">
<path d="M164.001 80.0033C164.413 76.9728 164.614 73.8755 164.591 70.7267C164.32 35.5607 135.584 6.86499 100.418 6.64195C64.5531 6.41499 35.4074 35.4205 35.4074 71.2334C35.4074 74.208 35.609 77.1353 35.9984 80.0029C37.5777 91.6228 32.1363 103.106 22.2437 109.402C8.3332 118.257 0 129.535 0 141.817C0 170.284 44.7715 193.361 100 193.361C155.229 193.361 200 170.284 200 141.817C200 129.535 191.667 118.257 177.755 109.402C167.863 103.106 162.422 91.6228 164.001 80.0033Z" fill="#2E9C3E" fill-opacity="0.15"/>
<path d="M174.748 137.051C174.248 137.051 173.748 136.86 173.367 136.478L169.07 132.182C168.307 131.419 168.307 130.182 169.07 129.42L173.367 125.123C174.129 124.36 175.367 124.36 176.129 125.123L180.426 129.42C181.189 130.182 181.189 131.419 180.426 132.182L176.129 136.478C175.748 136.86 175.248 137.051 174.748 137.051ZM173.214 130.801L174.748 132.335L176.283 130.801L174.748 129.266L173.214 130.801Z" fill="#2E9C3E"/>
<path d="M166.582 31.8222C166.082 31.8222 165.582 31.6315 165.201 31.2499L160.904 26.953C160.141 26.1905 160.141 24.9538 160.904 24.1913L165.201 19.8944C165.963 19.1315 167.201 19.1315 167.963 19.8944L172.26 24.1913C173.023 24.9538 173.023 26.1905 172.26 26.953L167.963 31.2499C167.582 31.6312 167.082 31.8222 166.582 31.8222ZM165.047 25.5722L166.582 27.1069L168.117 25.5722L166.582 24.0374L165.047 25.5722Z" fill="#2E9C3E"/>
<path d="M25.3645 71.582C24.8648 71.582 24.3648 71.3914 23.9836 71.0102L19.5723 66.5992C19.2059 66.2328 19 65.7359 19 65.218C19 64.7 19.2055 64.2031 19.5723 63.8371L23.9836 59.4258C24.35 59.059 24.8465 58.8535 25.3645 58.8535C25.8824 58.8535 26.3793 59.0594 26.7457 59.4258L31.1566 63.8371C31.9191 64.5996 31.9191 65.8363 31.1563 66.5988L26.7453 71.0098C26.3641 71.3914 25.8641 71.582 25.3645 71.582ZM23.7152 65.218L25.3645 66.8668L27.0133 65.218L25.3645 63.5687L23.7152 65.218Z" fill="#2E9C3E"/>
<path d="M166.581 116.755C163.778 116.755 161.498 114.475 161.498 111.673C161.498 108.87 163.778 106.59 166.581 106.59C169.384 106.59 171.664 108.87 171.664 111.673C171.664 114.475 169.384 116.755 166.581 116.755ZM166.581 110.496C165.932 110.496 165.404 111.024 165.404 111.673C165.404 112.321 165.932 112.849 166.581 112.849C167.23 112.849 167.757 112.321 167.757 111.673C167.757 111.024 167.23 110.496 166.581 110.496Z" fill="#2E9C3E"/>
<path d="M35.6297 97.7109C32.827 97.7109 30.5469 95.4309 30.5469 92.6281C30.5469 89.8254 32.827 87.5449 35.6297 87.5449C38.4324 87.5449 40.7125 89.8254 40.7125 92.6281C40.7125 95.4309 38.4324 97.7109 35.6297 97.7109ZM35.6297 91.4512C34.9809 91.4512 34.4531 91.9789 34.4531 92.6281C34.4531 93.277 34.9809 93.8047 35.6297 93.8047C36.2785 93.8047 36.8062 93.277 36.8062 92.6281C36.8062 91.9793 36.2785 91.4512 35.6297 91.4512Z" fill="#2E9C3E"/>
<path opacity="0.1" d="M53.4375 181.902C53.4375 186.395 57.082 190.039 61.5781 190.039H142.094C146.59 190.039 150.234 186.395 150.234 181.902V28.6445C150.234 24.1523 146.59 20.5078 142.094 20.5078H61.5781C57.082 20.5078 53.4375 24.1523 53.4375 28.6445V181.902Z" fill="#244E2B"/>
<path d="M150.234 18.0977V171.355C150.234 175.848 146.59 179.492 142.094 179.492H61.5781C57.082 179.492 53.4375 175.848 53.4375 171.355V18.0977C53.4375 13.6055 57.082 9.96094 61.5781 9.96094H142.094C146.59 9.96094 150.234 13.6055 150.234 18.0977Z" fill="#2E9C3E"/>
<path d="M53.4375 85.1562V171.355C53.4375 175.848 57.082 179.492 61.5781 179.492H142.094C146.59 179.492 150.234 175.848 150.234 171.355V85.1562H53.4375Z" fill="black"/>
<path d="M128.221 20.9012L131.523 9.96094H72.1484L75.4504 20.9012C75.948 22.5504 77.4676 23.6785 79.1898 23.6785H124.481C126.205 23.6785 127.724 22.55 128.221 20.9012Z" fill="black"/>
<path d="M150.234 111.329C151.312 111.329 152.187 110.454 152.187 109.375V18.1C152.187 12.5352 147.659 8.00781 142.095 8.00781H131.523C130.662 8.00781 129.902 8.57187 129.653 9.39687L126.351 20.3367C126.1 21.1676 125.349 21.7258 124.482 21.7258H79.1898C78.3219 21.7258 77.5707 21.1676 77.3203 20.3367L74.7777 11.9141H118.343C119.422 11.9141 120.296 11.0398 120.296 9.96094C120.296 8.88203 119.422 8.00781 118.343 8.00781H61.5762C56.0117 8.00781 51.4844 12.5352 51.4844 18.1V171.355C51.4844 176.92 56.0117 181.447 61.5762 181.447H142.095C147.659 181.447 152.187 176.92 152.187 171.355V122.657C152.187 121.578 151.312 120.704 150.234 120.704C149.155 120.704 148.28 121.578 148.28 122.657V171.355C148.28 174.766 145.505 177.541 142.095 177.541H61.5762C58.1656 177.541 55.3906 174.766 55.3906 171.355V18.1C55.3906 14.6891 58.1656 11.9141 61.5762 11.9141H70.6969L73.5801 21.4652C74.332 23.9574 76.5859 25.6316 79.1895 25.6316H124.481C127.084 25.6316 129.338 23.9574 130.09 21.4652L132.973 11.9141H142.094C145.505 11.9141 148.28 14.6891 148.28 18.1V109.375C148.28 110.454 149.155 111.329 150.234 111.329Z" fill="#244E2B"/>
<path d="M82.7559 16.8199C82.7559 15.7727 83.6047 14.9238 84.652 14.9238C85.6992 14.9238 86.548 15.7727 86.548 16.8199C86.548 17.8672 85.6992 18.716 84.652 18.716C83.6047 18.716 82.7559 17.8672 82.7559 16.8199Z" fill="#244E2B"/>
<path d="M89.1328 16.8199C89.1328 15.7727 89.9816 14.9238 91.0289 14.9238C92.0762 14.9238 92.925 15.7727 92.925 16.8199C92.925 17.8672 92.0762 18.716 91.0289 18.716C89.9816 18.716 89.1328 17.8672 89.1328 16.8199Z" fill="#244E2B"/>
<path d="M117.696 18.716H103.164C102.159 18.716 101.344 17.9012 101.344 16.8961C101.344 15.891 102.159 15.0762 103.164 15.0762H117.696C118.701 15.0762 119.516 15.891 119.516 16.8961C119.516 17.9012 118.701 18.716 117.696 18.716Z" fill="#244E2B"/>
<path d="M80.5055 64.6777H123.162C124.168 64.6777 124.982 65.4926 124.982 66.4977C124.982 67.5027 124.168 68.3176 123.162 68.3176H80.5055C79.5004 68.3176 78.6855 67.5027 78.6855 66.4977C78.6855 65.4926 79.5 64.6777 80.5055 64.6777Z" fill="#244E2B"/>
<path d="M84.607 72.0254H119.061C120.066 72.0254 120.881 72.8402 120.881 73.8453C120.881 74.8504 120.066 75.6652 119.061 75.6652H84.607C83.602 75.6652 82.7871 74.8504 82.7871 73.8453C82.7871 72.8402 83.6016 72.0254 84.607 72.0254Z" fill="#244E2B"/>
<path d="M92.2242 33.9863H111.444C112.449 33.9863 113.264 34.8012 113.264 35.8063C113.264 36.8113 112.449 37.6262 111.444 37.6262H92.2242C91.2191 37.6262 90.4043 36.8113 90.4043 35.8063C90.4043 34.8012 91.2188 33.9863 92.2242 33.9863Z" fill="#244E2B"/>
<path d="M72.8919 105.92C72.3329 105.92 71.7783 105.682 71.3919 105.219C70.7001 104.391 70.8107 103.16 71.6384 102.468C79.0423 96.2805 88.4701 92.873 98.1837 92.873C104.802 92.873 111.405 94.4848 117.279 97.5344C119.255 98.5605 121.157 99.7496 122.932 101.069C123.798 101.712 123.978 102.936 123.334 103.802C122.69 104.667 121.467 104.847 120.601 104.204C118.994 103.009 117.27 101.931 115.479 101.001C110.16 98.2394 104.179 96.7793 98.1841 96.7793C89.3841 96.7793 80.8462 99.8645 74.1435 105.466C73.7779 105.771 73.3337 105.92 72.8919 105.92Z" fill="#244E2B"/>
<path d="M132.04 113.53C132.049 113.522 132.059 113.513 132.069 113.504C132.797 112.864 132.95 111.783 132.409 110.98C131.848 110.147 131.257 109.335 130.632 108.545C129.991 107.735 128.831 107.472 127.967 108.04C126.993 108.68 126.798 110 127.507 110.891C128.095 111.631 128.653 112.392 129.181 113.171C129.828 114.127 131.174 114.293 132.04 113.53Z" fill="#244E2B"/>
<path d="M126.286 150.846C125.983 150.846 125.675 150.776 125.388 150.626C124.431 150.13 124.057 148.95 124.554 147.993C132.101 133.452 126.413 115.482 111.875 107.935C107.667 105.748 102.932 104.592 98.1817 104.592C88.7364 104.592 80.0872 108.903 74.4513 116.42C73.8048 117.283 72.5806 117.458 71.7173 116.811C70.854 116.164 70.679 114.939 71.3263 114.077C77.7067 105.566 87.4954 100.686 98.1817 100.686C103.556 100.686 108.913 101.994 113.676 104.468C130.124 113.008 136.56 133.34 128.021 149.793C127.674 150.463 126.992 150.846 126.286 150.846Z" fill="#244E2B"/>
<path d="M122.032 160.379C121.567 160.379 121.101 160.214 120.728 159.879C114.088 153.915 117.385 144.975 117.528 144.597C117.555 144.527 117.586 144.459 117.621 144.392C123.183 133.676 118.992 120.432 108.278 114.869C105.176 113.257 101.685 112.405 98.1819 112.405C89.9709 112.405 82.5245 116.93 78.7475 124.214C77.6448 126.341 76.1635 128.451 74.3456 130.487C73.6272 131.291 72.3916 131.361 71.5877 130.643C70.7831 129.924 70.7135 128.689 71.4319 127.885C73.0327 126.092 74.3272 124.252 75.2799 122.416C79.7307 113.831 88.5061 108.498 98.1819 108.498C102.309 108.498 106.423 109.502 110.078 111.402C122.664 117.936 127.611 133.467 121.148 146.074C120.857 146.913 118.942 153.026 123.338 156.973C124.14 157.694 124.207 158.929 123.486 159.731C123.1 160.161 122.567 160.379 122.032 160.379Z" fill="#244E2B"/>
<path d="M114.222 167.091C113.738 167.091 113.252 166.912 112.874 166.55C104.196 158.266 107.649 146.082 110.706 140.757C114.255 133.87 111.556 125.374 104.677 121.802C102.675 120.766 100.43 120.217 98.1861 120.217C93.3025 120.217 88.8435 122.679 86.2584 126.802C85.6853 127.716 84.4802 127.992 83.5662 127.42C82.6525 126.846 82.3759 125.641 82.949 124.727C86.2533 119.457 91.9494 116.311 98.1865 116.311C101.053 116.311 103.919 117.01 106.476 118.334C115.279 122.905 118.724 133.788 114.155 142.593C114.141 142.619 114.127 142.645 114.113 142.67C114.095 142.7 112.222 146.007 111.522 150.308C110.63 155.794 111.993 160.308 115.572 163.725C116.352 164.47 116.38 165.706 115.635 166.487C115.251 166.888 114.737 167.091 114.222 167.091Z" fill="#244E2B"/>
<path d="M72.8901 141.861C72.3198 141.861 71.7542 141.612 71.3682 141.134C70.6913 140.294 70.8229 139.064 71.6632 138.387C74.0405 136.471 76.1702 134.403 77.9925 132.241C78.6878 131.417 79.9198 131.311 80.7448 132.007C81.5694 132.702 81.6745 133.934 80.9792 134.759C78.9956 137.111 76.6862 139.356 74.1143 141.428C73.7538 141.719 73.3206 141.861 72.8901 141.861Z" fill="#244E2B"/>
<path d="M105.607 168.557C104.963 168.557 104.331 168.239 103.959 167.655C102.764 165.785 101.804 163.222 101.159 161.193C99.5985 162.68 97.9692 164.115 96.2891 165.481C95.4528 166.163 94.2227 166.036 93.5418 165.199C92.861 164.362 92.9871 163.132 93.8242 162.452C96.2606 160.469 98.5856 158.336 100.733 156.112C101.229 155.598 101.965 155.397 102.657 155.585C103.346 155.775 103.876 156.326 104.04 157.022C104.053 157.077 105.364 162.599 107.251 165.552C107.832 166.461 107.566 167.669 106.657 168.25C106.331 168.458 105.966 168.557 105.607 168.557Z" fill="#244E2B"/>
<path d="M85.8619 163.413C85.2587 163.413 84.6642 163.135 84.2814 162.61C83.6466 161.738 83.8384 160.516 84.7107 159.881C90.6037 155.589 98.7966 148.223 104.359 137.509C106.126 134.103 104.795 129.896 101.392 128.13C100.403 127.617 99.2935 127.346 98.1861 127.346C95.5744 127.346 93.208 128.783 92.0103 131.096C86.6849 141.35 77.6091 147.986 73.9537 150.362C73.049 150.951 71.8396 150.694 71.2517 149.789C70.6634 148.886 70.9197 147.675 71.8244 147.087C75.2197 144.879 83.6466 138.726 88.5423 129.297C90.4127 125.685 94.108 123.439 98.1861 123.439C99.9169 123.439 101.647 123.862 103.19 124.663C108.506 127.421 110.585 133.99 107.826 139.308C101.913 150.697 93.2423 158.499 87.0099 163.039C86.6634 163.291 86.2611 163.413 85.8619 163.413Z" fill="#244E2B"/>
<path d="M74.8441 160.379C74.1535 160.379 73.4848 160.013 73.1293 159.364C72.6109 158.418 72.9578 157.231 73.9031 156.713C74.1223 156.592 89.327 148.074 97.5172 132.298C98.0137 131.34 99.193 130.967 100.15 131.465C101.108 131.961 101.481 133.14 100.984 134.098C92.2125 150.994 76.4477 159.773 75.7809 160.138C75.4832 160.302 75.1609 160.379 74.8441 160.379Z" fill="#244E2B"/>
<path d="M120.606 58.0793H83.0645C82.4172 58.0793 81.8926 57.5547 81.8926 56.9074V46.291C81.8926 45.6438 82.4172 45.1191 83.0645 45.1191H120.606C121.254 45.1191 121.778 45.6438 121.778 46.291V56.9074C121.778 57.5547 121.254 58.0793 120.606 58.0793Z" fill="black"/>
<path d="M134.37 91.5211C137.885 91.5211 140.734 88.6718 140.734 85.157C140.734 81.6423 137.885 78.793 134.37 78.793C130.855 78.793 128.006 81.6423 128.006 85.157C128.006 88.6718 130.855 91.5211 134.37 91.5211Z" fill="black"/>
<path d="M134.37 91.5211C137.885 91.5211 140.734 88.6718 140.734 85.157C140.734 81.6423 137.885 78.793 134.37 78.793C130.855 78.793 128.006 81.6423 128.006 85.157C128.006 88.6718 130.855 91.5211 134.37 91.5211Z" stroke="#244E2B" stroke-width="10" stroke-miterlimit="10" stroke-linecap="round" stroke-linejoin="round"/>
</g>
<defs>
<clipPath id="clip0_0_7859">
<rect width="200" height="200" fill="white"/>
</clipPath>
</defs>
</svg>
