<svg width="200" height="200" viewBox="0 0 200 200" fill="none" xmlns="http://www.w3.org/2000/svg">
<g clip-path="url(#clip0_0_8385)">
<path d="M111.951 1.90112C75.0948 12.7394 82.487 38.4578 78.3647 66.9554C73.2198 102.523 50.9838 84.2855 25.4366 103.494C-18.7252 136.697 13.3541 209.992 68.1975 198.861C97.3194 192.95 103.27 171.48 115.148 148.539C130.512 118.862 155.991 126.953 178.846 107.579C225.195 68.2894 164.235 -13.4743 111.951 1.90112Z" fill="#2E9C3E" fill-opacity="0.15"/>
<path opacity="0.1" d="M150.988 31.0215V178.646C150.988 185.119 145.742 190.365 139.27 190.365H60.7305C54.2578 190.365 49.0117 185.119 49.0117 178.646V31.0215C49.0117 24.5488 54.2578 19.3027 60.7305 19.3027H139.27C145.742 19.3027 150.988 24.5488 150.988 31.0215Z" fill="#244E2B"/>
<path d="M150.988 21.6465V169.271C150.988 175.744 145.742 180.99 139.27 180.99H60.7305C54.2578 180.99 49.0117 175.744 49.0117 169.271V21.6465C49.0117 15.1738 54.2578 9.92773 60.7305 9.92773H139.27C145.742 9.92773 150.988 15.1734 150.988 21.6465Z" fill="black"/>
<path d="M49.0117 116.145V169.27C49.0117 175.743 54.2578 180.989 60.7305 180.989H139.27C145.742 180.989 150.988 175.743 150.988 169.27V116.145H49.0117Z" fill="#2E9C3E"/>
<path d="M49.0117 129.557V169.271C49.0117 175.744 54.2578 180.99 60.7305 180.99H139.27C145.742 180.99 150.988 175.744 150.988 169.271V129.557H49.0117Z" fill="black"/>
<path d="M121.716 18.8883L124.512 9.92773H75.4883L78.284 18.8883C78.793 20.5199 80.3039 21.6312 82.0129 21.6312H117.987C119.696 21.6309 121.207 20.5199 121.716 18.8883Z" fill="#2E9C3E"/>
<path d="M70.248 20.9941H62.8262C61.7477 20.9941 60.873 20.1199 60.873 19.041V17.0957C60.873 16.0172 61.7477 15.1426 62.8262 15.1426H70.248C71.327 15.1426 72.2012 16.0172 72.2012 17.0957V19.041C72.2012 20.1195 71.327 20.9941 70.248 20.9941Z" fill="#244E2B"/>
<path d="M131.219 20.7051C130.14 20.7051 129.266 19.8305 129.266 18.752V17.3848C129.266 16.3063 130.14 15.4316 131.219 15.4316C132.297 15.4316 133.172 16.3063 133.172 17.3848V18.752C133.172 19.8309 132.297 20.7051 131.219 20.7051Z" fill="#244E2B"/>
<path d="M137.176 20.7051C136.097 20.7051 135.223 19.8305 135.223 18.752V17.3848C135.223 16.3063 136.097 15.4316 137.176 15.4316C138.254 15.4316 139.129 16.3063 139.129 17.3848V18.752C139.129 19.8309 138.254 20.7051 137.176 20.7051Z" fill="#244E2B"/>
<path d="M35.1562 144.101C34.6565 144.101 34.1562 143.911 33.7753 143.529L29.4784 139.232C28.7155 138.47 28.7155 137.233 29.4784 136.47L33.7753 132.173C34.5374 131.411 35.7749 131.411 36.537 132.173L40.8339 136.47C41.5968 137.233 41.5968 138.47 40.8339 139.232L36.537 143.529C36.1562 143.911 35.6558 144.101 35.1562 144.101ZM33.6214 137.851L35.1562 139.386L36.6909 137.851L35.1562 136.316L33.6214 137.851Z" fill="#2E9C3E"/>
<path d="M168.75 141.033C168.25 141.033 167.75 140.842 167.369 140.461L163.072 136.164C162.309 135.401 162.309 134.164 163.072 133.402L167.369 129.105C168.131 128.343 169.369 128.343 170.131 129.105L174.428 133.402C175.191 134.165 175.191 135.402 174.428 136.164L170.131 140.461C169.75 140.842 169.25 141.033 168.75 141.033ZM167.215 134.783L168.75 136.318L170.285 134.783L168.75 133.248L167.215 134.783Z" fill="#2E9C3E"/>
<path d="M30.8594 123.188C29.7805 123.188 28.9063 122.313 28.9063 121.234C28.9063 119.942 27.8551 118.891 26.5625 118.891C25.4836 118.891 24.6094 118.016 24.6094 116.938C24.6094 115.859 25.4836 114.984 26.5625 114.984C27.8551 114.984 28.9063 113.933 28.9063 112.641C28.9063 111.562 29.7805 110.688 30.8594 110.688C31.9383 110.688 32.8125 111.562 32.8125 112.641C32.8125 113.933 33.8637 114.984 35.1563 114.984C36.2352 114.984 37.1094 115.859 37.1094 116.938C37.1094 118.016 36.2352 118.891 35.1563 118.891C33.8637 118.891 32.8125 119.942 32.8125 121.234C32.8125 122.313 31.9383 123.188 30.8594 123.188Z" fill="#2E9C3E"/>
<path d="M173.828 52.6504C172.749 52.6504 171.875 51.7758 171.875 50.6973C171.875 49.4047 170.824 48.3535 169.531 48.3535C168.452 48.3535 167.578 47.4789 167.578 46.4004C167.578 45.3219 168.452 44.4473 169.531 44.4473C170.824 44.4473 171.875 43.3961 171.875 42.1035C171.875 41.025 172.749 40.1504 173.828 40.1504C174.907 40.1504 175.781 41.025 175.781 42.1035C175.781 43.3961 176.832 44.4473 178.125 44.4473C179.204 44.4473 180.078 45.3219 180.078 46.4004C180.078 47.4789 179.204 48.3535 178.125 48.3535C176.832 48.3535 175.781 49.4047 175.781 50.6973C175.781 51.7758 174.907 52.6504 173.828 52.6504Z" fill="#2E9C3E"/>
<path d="M164.977 71.8984C163.898 71.8984 163.023 71.0238 163.023 69.9453C163.023 68.6527 161.972 67.6016 160.68 67.6016C159.601 67.6016 158.727 66.727 158.727 65.6484C158.727 64.5699 159.601 63.6953 160.68 63.6953C161.972 63.6953 163.023 62.6441 163.023 61.3516C163.023 60.273 163.898 59.3984 164.977 59.3984C166.055 59.3984 166.93 60.273 166.93 61.3516C166.93 62.6441 167.981 63.6953 169.273 63.6953C170.352 63.6953 171.227 64.5699 171.227 65.6484C171.227 66.727 170.352 67.6016 169.273 67.6016C167.981 67.6016 166.93 68.6527 166.93 69.9453C166.93 71.0242 166.055 71.8984 164.977 71.8984Z" fill="#2E9C3E"/>
<path d="M63.0852 144.271H59.4395C58.3605 144.271 57.4863 143.396 57.4863 142.318V136.328C57.4863 135.25 58.3605 134.375 59.4395 134.375H63.0852C64.1637 134.375 65.0383 135.25 65.0383 136.328V142.318C65.0383 143.396 64.1637 144.271 63.0852 144.271Z" fill="#2E9C3E"/>
<path d="M74.1535 144.271H70.5078C69.4293 144.271 68.5547 143.396 68.5547 142.318V136.328C68.5547 135.25 69.4293 134.375 70.5078 134.375H74.1535C75.2324 134.375 76.1066 135.25 76.1066 136.328V142.318C76.1066 143.396 75.2324 144.271 74.1535 144.271Z" fill="#2E9C3E"/>
<path d="M85.2199 144.271H81.5742C80.4957 144.271 79.6211 143.396 79.6211 142.318V136.328C79.6211 135.25 80.4957 134.375 81.5742 134.375H85.2199C86.2984 134.375 87.173 135.25 87.173 136.328V142.318C87.173 143.396 86.2984 144.271 85.2199 144.271Z" fill="#2E9C3E"/>
<path d="M96.2883 144.271H92.6426C91.5637 144.271 90.6895 143.396 90.6895 142.318V136.328C90.6895 135.25 91.5637 134.375 92.6426 134.375H96.2883C97.3668 134.375 98.2414 135.25 98.2414 136.328V142.318C98.2414 143.396 97.3668 144.271 96.2883 144.271Z" fill="#2E9C3E"/>
<path d="M107.357 144.271H103.711C102.632 144.271 101.758 143.396 101.758 142.318V136.328C101.758 135.25 102.632 134.375 103.711 134.375H107.357C108.436 134.375 109.31 135.25 109.31 136.328V142.318C109.31 143.396 108.436 144.271 107.357 144.271Z" fill="#2E9C3E"/>
<path d="M118.423 144.271H114.777C113.699 144.271 112.824 143.396 112.824 142.318V136.328C112.824 135.25 113.699 134.375 114.777 134.375H118.423C119.502 134.375 120.376 135.25 120.376 136.328V142.318C120.376 143.396 119.502 144.271 118.423 144.271Z" fill="#2E9C3E"/>
<path d="M129.491 144.271H125.846C124.767 144.271 123.893 143.396 123.893 142.318V136.328C123.893 135.25 124.767 134.375 125.846 134.375H129.491C130.57 134.375 131.445 135.25 131.445 136.328V142.318C131.445 143.396 130.57 144.271 129.491 144.271Z" fill="#2E9C3E"/>
<path d="M140.56 144.271H136.914C135.836 144.271 134.961 143.396 134.961 142.318V136.328C134.961 135.25 135.836 134.375 136.914 134.375H140.56C141.639 134.375 142.513 135.25 142.513 136.328V142.318C142.513 143.396 141.639 144.271 140.56 144.271Z" fill="#2E9C3E"/>
<path d="M63.0852 158.073H59.4395C58.3605 158.073 57.4863 157.199 57.4863 156.12V150.131C57.4863 149.052 58.3605 148.178 59.4395 148.178H63.0852C64.1637 148.178 65.0383 149.052 65.0383 150.131V156.12C65.0383 157.199 64.1637 158.073 63.0852 158.073Z" fill="#2E9C3E"/>
<path d="M74.1535 158.073H70.5078C69.4293 158.073 68.5547 157.199 68.5547 156.12V150.131C68.5547 149.052 69.4293 148.178 70.5078 148.178H74.1535C75.2324 148.178 76.1066 149.052 76.1066 150.131V156.12C76.1066 157.199 75.2324 158.073 74.1535 158.073Z" fill="#2E9C3E"/>
<path d="M85.2199 158.073H81.5742C80.4957 158.073 79.6211 157.199 79.6211 156.12V150.131C79.6211 149.052 80.4957 148.178 81.5742 148.178H85.2199C86.2984 148.178 87.173 149.052 87.173 150.131V156.12C87.173 157.199 86.2984 158.073 85.2199 158.073Z" fill="#2E9C3E"/>
<path d="M96.2883 158.073H92.6426C91.5637 158.073 90.6895 157.199 90.6895 156.12V150.131C90.6895 149.052 91.5637 148.178 92.6426 148.178H96.2883C97.3668 148.178 98.2414 149.052 98.2414 150.131V156.12C98.2414 157.199 97.3668 158.073 96.2883 158.073Z" fill="#2E9C3E"/>
<path d="M107.357 158.073H103.711C102.632 158.073 101.758 157.199 101.758 156.12V150.131C101.758 149.052 102.632 148.178 103.711 148.178H107.357C108.436 148.178 109.31 149.052 109.31 150.131V156.12C109.31 157.199 108.436 158.073 107.357 158.073Z" fill="#2E9C3E"/>
<path d="M118.423 158.073H114.777C113.699 158.073 112.824 157.199 112.824 156.12V150.131C112.824 149.052 113.699 148.178 114.777 148.178H118.423C119.502 148.178 120.376 149.052 120.376 150.131V156.12C120.376 157.199 119.502 158.073 118.423 158.073Z" fill="#2E9C3E"/>
<path d="M129.491 158.073H125.846C124.767 158.073 123.893 157.199 123.893 156.12V150.131C123.893 149.052 124.767 148.178 125.846 148.178H129.491C130.57 148.178 131.445 149.052 131.445 150.131V156.12C131.445 157.199 130.57 158.073 129.491 158.073Z" fill="#2E9C3E"/>
<path d="M140.56 158.073H136.914C135.836 158.073 134.961 157.199 134.961 156.12V150.131C134.961 149.052 135.836 148.178 136.914 148.178H140.56C141.639 148.178 142.513 149.052 142.513 150.131V156.12C142.513 157.199 141.639 158.073 140.56 158.073Z" fill="#2E9C3E"/>
<path d="M63.0852 171.874H59.4395C58.3605 171.874 57.4863 171 57.4863 169.921V163.932C57.4863 162.853 58.3605 161.979 59.4395 161.979H63.0852C64.1637 161.979 65.0383 162.853 65.0383 163.932V169.921C65.0383 171 64.1637 171.874 63.0852 171.874Z" fill="#2E9C3E"/>
<path d="M74.1535 171.874H70.5078C69.4293 171.874 68.5547 171 68.5547 169.921V163.932C68.5547 162.853 69.4293 161.979 70.5078 161.979H74.1535C75.2324 161.979 76.1066 162.853 76.1066 163.932V169.921C76.1066 171 75.2324 171.874 74.1535 171.874Z" fill="#2E9C3E"/>
<path d="M118.423 171.874H81.5742C80.4957 171.874 79.6211 171 79.6211 169.921V163.932C79.6211 162.853 80.4957 161.979 81.5742 161.979H118.423C119.502 161.979 120.376 162.853 120.376 163.932V169.921C120.376 171 119.502 171.874 118.423 171.874Z" fill="#2E9C3E"/>
<path d="M129.491 171.874H125.846C124.767 171.874 123.893 171 123.893 169.921V163.932C123.893 162.853 124.767 161.979 125.846 161.979H129.491C130.57 161.979 131.445 162.853 131.445 163.932V169.921C131.445 171 130.57 171.874 129.491 171.874Z" fill="#2E9C3E"/>
<path d="M140.56 171.874H136.914C135.836 171.874 134.961 171 134.961 169.921V163.932C134.961 162.853 135.836 161.979 136.914 161.979H140.56C141.639 161.979 142.513 162.853 142.513 163.932V169.921C142.513 171 141.639 171.874 140.56 171.874Z" fill="#2E9C3E"/>
<path d="M75.0176 110.463H133.754C140.466 110.463 145.907 105.022 145.907 98.3098C145.907 91.5977 140.466 86.1562 133.754 86.1562H85.7277C79.0152 86.1562 73.5742 91.5977 73.5742 98.3098V109.02C73.5742 109.817 74.2203 110.463 75.0176 110.463Z" fill="#2E9C3E"/>
<path d="M99.0195 96.6191H134.769C135.848 96.6191 136.722 95.7445 136.722 94.666C136.722 93.5875 135.848 92.7129 134.769 92.7129H99.0195C97.9406 92.7129 97.0664 93.5875 97.0664 94.666C97.0664 95.7445 97.9406 96.6191 99.0195 96.6191Z" fill="#244E2B"/>
<path d="M87.3008 103.906H134.77C135.848 103.906 136.723 103.032 136.723 101.953C136.723 100.875 135.848 100 134.77 100H87.3008C86.2219 100 85.3477 100.875 85.3477 101.953C85.3477 103.032 86.2223 103.906 87.3008 103.906Z" fill="#244E2B"/>
<path d="M100.196 80.7758H67.7512C62.9805 80.7758 59.1133 76.9086 59.1133 72.1379C59.1133 67.3672 62.9805 63.5 67.7512 63.5H93.5113C98.282 63.5 102.149 67.3676 102.149 72.1379V78.8227C102.149 79.9012 101.275 80.7758 100.196 80.7758Z" fill="#2E9C3E"/>
<path d="M88.4219 74.2188H70.25C69.1711 74.2188 68.2969 73.3441 68.2969 72.2656C68.2969 71.1871 69.1711 70.3125 70.25 70.3125H88.4219C89.5008 70.3125 90.375 71.1871 90.375 72.2656C90.375 73.3441 89.5004 74.2188 88.4219 74.2188Z" fill="#244E2B"/>
<path d="M75.0176 54.7309H133.754C140.466 54.7309 145.907 49.2894 145.907 42.5773C145.907 35.8652 140.466 30.4238 133.754 30.4238H85.7277C79.0152 30.4238 73.5742 35.8652 73.5742 42.5773V53.2875C73.5742 54.0848 74.2203 54.7309 75.0176 54.7309Z" fill="#2E9C3E"/>
<path d="M87.3008 40.8867H134.77C135.848 40.8867 136.723 40.0121 136.723 38.9336C136.723 37.8551 135.848 36.9805 134.77 36.9805H87.3008C86.2219 36.9805 85.3477 37.8551 85.3477 38.9336C85.3477 40.0121 86.2223 40.8867 87.3008 40.8867Z" fill="#244E2B"/>
<path d="M87.3008 48.1738H134.77C135.848 48.1738 136.723 47.2992 136.723 46.2207C136.723 45.1422 135.848 44.2676 134.77 44.2676H87.3008C86.2219 44.2676 85.3477 45.1422 85.3477 46.2207C85.3477 47.2992 86.2223 48.1738 87.3008 48.1738Z" fill="#244E2B"/>
<path d="M67.2266 54.9063C66.148 54.9063 65.2734 54.0316 65.2734 52.9531V51.5859C65.2734 50.5074 66.148 49.6328 67.2266 49.6328C68.3051 49.6328 69.1797 50.5074 69.1797 51.5859V52.9531C69.1797 54.032 68.3051 54.9063 67.2266 54.9063Z" fill="#244E2B"/>
<path d="M67.1289 110.449C66.0504 110.449 65.1758 109.575 65.1758 108.496V107.129C65.1758 106.05 66.0504 105.176 67.1289 105.176C68.2074 105.176 69.082 106.05 69.082 107.129V108.496C69.082 109.575 68.2074 110.449 67.1289 110.449Z" fill="#244E2B"/>
<path d="M108.203 80.7754C107.125 80.7754 106.25 79.9008 106.25 78.8223V77.4551C106.25 76.3766 107.125 75.502 108.203 75.502C109.282 75.502 110.156 76.3766 110.156 77.4551V78.8223C110.156 79.9008 109.282 80.7754 108.203 80.7754Z" fill="#244E2B"/>
<path d="M60.7305 182.944H139.27C146.809 182.944 152.942 176.811 152.942 169.272V82.4863C152.942 81.4078 152.068 80.5332 150.989 80.5332C149.91 80.5332 149.036 81.4078 149.036 82.4863V169.272C149.036 174.657 144.655 179.038 139.27 179.038H60.7305C55.3457 179.038 50.9648 174.657 50.9648 169.272V117.643C50.9648 116.564 50.0906 115.689 49.0117 115.689C47.9328 115.689 47.0586 116.564 47.0586 117.643V169.272C47.0586 176.811 53.1918 182.944 60.7305 182.944Z" fill="#244E2B"/>
<path d="M49.0117 106.447C50.0906 106.447 50.9648 105.572 50.9648 104.494V21.6465C50.9648 16.2617 55.3457 11.8809 60.7305 11.8809H139.27C144.655 11.8809 149.036 16.2617 149.036 21.6465V69.3375C149.036 70.416 149.91 71.2906 150.989 71.2906C152.068 71.2906 152.942 70.416 152.942 69.3375V21.6465C152.942 14.1078 146.809 7.97461 139.27 7.97461H60.7305C53.1918 7.97461 47.0586 14.1078 47.0586 21.6465V104.494C47.0586 105.572 47.9328 106.447 49.0117 106.447Z" fill="#244E2B"/>
</g>
<defs>
<clipPath id="clip0_0_8385">
<rect width="200" height="200" fill="white"/>
</clipPath>
</defs>
</svg>
