<svg width="200" height="200" viewBox="0 0 200 200" fill="none" xmlns="http://www.w3.org/2000/svg">
<g clip-path="url(#clip0_0_8252)">
<path d="M196.044 53.3241C187.311 31.1023 160.409 17.7761 137.624 26.5948C110.839 36.9616 120.721 77.8588 96.6148 86.3947C83.8535 90.9135 64.9887 74.0338 52.0958 71.4455C28.3376 66.6756 6.82983 83.4393 1.53375 106.654C-3.86937 130.338 4.79663 161.97 30.8177 168.398C61.8137 176.055 77.9594 148.192 103.962 140.191C130.645 131.981 160.314 151.372 182.404 127.779C198.725 110.349 204.692 75.3287 196.044 53.3241Z" fill="#2E9C3E" fill-opacity="0.15"/>
<path opacity="0.11" d="M69.6113 96.7816L144.952 160.671V32.8926L69.6113 96.7816Z" fill="#244E2B"/>
<path opacity="0.11" d="M62.068 66.7969H49.2836C30.0321 66.7969 14.3516 82.7535 15.2496 101.984C16.0817 119.798 30.7875 133.984 48.8063 133.984H61.5907C80.8422 133.984 96.5227 118.028 95.6246 98.7969C94.793 80.984 80.0871 66.7969 62.068 66.7969Z" fill="#244E2B"/>
<path opacity="0.11" d="M134.252 64.0625H145.365C157.338 64.0625 167.523 54.9566 168.441 43.0187C169.474 29.582 158.877 18.3594 145.659 18.3594H134.252C121.631 18.3594 111.4 28.5902 111.4 41.2109C111.4 53.8316 121.631 64.0625 134.252 64.0625Z" fill="#244E2B"/>
<path opacity="0.11" d="M144.782 153.125H135.356C125.588 153.125 117.149 160.296 115.948 169.99C114.489 181.772 123.639 191.797 135.131 191.797H144.782C155.461 191.797 164.118 183.14 164.118 172.461C164.118 161.782 155.461 153.125 144.782 153.125Z" fill="#244E2B"/>
<path d="M70.3438 125.782C88.6953 125.782 103.615 111.11 103.98 92.8727C104.359 73.9813 88.8234 58.5938 69.9285 58.5938H57.0625V125.781L70.3438 125.782Z" fill="#2E9C3E"/>
<path d="M56.9934 125.975C75.5926 125.975 90.6703 110.897 90.6703 92.298C90.6703 73.6988 75.5926 58.6211 56.9934 58.6211C38.3941 58.6211 23.3164 73.6988 23.3164 92.298C23.3164 110.897 38.3941 125.975 56.9934 125.975Z" fill="black"/>
<path d="M153.937 55.859C167.06 55.859 177.58 44.6445 176.563 31.2145C175.659 19.2699 165.465 10.1562 153.486 10.1562H142.609V55.8594L153.937 55.859Z" fill="#2E9C3E"/>
<path d="M164.984 36.5442C167.039 24.1011 158.618 12.3481 146.175 10.2932C133.732 8.23825 121.979 16.6595 119.924 29.1026C117.869 41.5457 126.29 53.2987 138.733 55.3536C151.176 57.4085 162.929 48.9873 164.984 36.5442Z" fill="black"/>
<path d="M153.042 183.594C164.534 183.594 173.684 173.569 172.225 161.787C171.024 152.093 162.586 144.922 152.818 144.922H143.391V183.594L153.042 183.594Z" fill="#2E9C3E"/>
<path d="M143.35 183.506C153.994 183.506 162.623 174.877 162.623 164.232C162.623 153.588 153.994 144.959 143.35 144.959C132.705 144.959 124.076 153.588 124.076 164.232C124.076 174.877 132.705 183.506 143.35 183.506Z" fill="black"/>
<path d="M152.375 135.547V65.1515C152.375 64.2128 153.004 63.3499 153.924 63.1655C155.179 62.914 156.281 63.8671 156.281 65.0781V135.621C156.281 136.832 155.179 137.785 153.924 137.533C153.004 137.348 152.375 136.485 152.375 135.547Z" fill="#244E2B"/>
<path d="M98.6533 61.8945C98.0994 61.8945 97.549 61.6601 97.1627 61.2046C96.465 60.382 96.5666 59.1492 97.3892 58.4515L112.378 45.7406C113.201 45.0433 114.433 45.1448 115.13 45.9667C115.828 46.7894 115.726 48.0222 114.904 48.7198L99.9154 61.4308C99.5486 61.7425 99.0998 61.8945 98.6533 61.8945Z" fill="#244E2B"/>
<path d="M118.319 152.254C117.873 152.254 117.424 152.101 117.057 151.79L91.7525 130.329C90.9299 129.632 90.8283 128.399 91.526 127.576C92.224 126.754 93.456 126.653 94.2787 127.35L119.583 148.811C120.406 149.508 120.508 150.741 119.81 151.564C119.424 152.019 118.873 152.254 118.319 152.254Z" fill="#244E2B"/>
<path d="M152.892 142.969H146.906V57.8125H153.331C167.27 57.8125 178.788 46.4988 178.541 32.5621C178.303 19.0898 167.279 8.20312 153.762 8.20312H142.106C131.24 8.20312 121.58 15.3367 118.608 25.7883C113.845 42.5414 126.357 57.8125 142.367 57.8125H142.999V143.257C138.7 143.308 134.703 144.635 131.374 146.882L95.9781 116.866C102.006 110.465 105.706 101.848 105.706 92.3828C105.706 85.3816 103.681 78.8449 100.189 73.3254L119.104 57.2855C119.127 57.266 119.142 57.2379 119.146 57.2082C119.489 54.6539 117.182 53.7789 115.886 54.877L97.9078 70.1227C91.3524 61.9117 81.2633 56.6406 69.9649 56.6406H53.1813C43.8008 56.6406 32.0645 63.1543 27.1574 71.1488C18.2043 85.7352 19.1391 101.964 28.0453 113.829C28.0633 113.853 28.0903 113.87 28.1192 113.877C30.6211 114.421 31.6828 112.201 30.6992 110.82C24.1051 101.564 22.8274 89.4887 27.9699 78.0438C30.9114 71.4977 36.2071 66.3441 42.7985 63.5055C66.5332 53.2844 89.4875 71.1676 88.4164 93.9129C87.6407 110.389 74.1719 123.657 57.686 124.189C50.2789 124.429 43.1797 122.153 37.3032 117.658C37.2789 117.639 37.2473 117.63 37.2168 117.634C34.6383 117.898 34.3328 120.36 35.7133 121.359C41.836 125.785 49.0684 128.125 56.6285 128.125H70.3582C79.1414 128.125 87.1895 124.923 93.4008 119.626L128.396 149.302C124.506 153.148 122.091 158.484 122.095 164.375C122.102 176.021 131.972 185.547 143.618 185.547H152.672C163.258 185.547 172.444 177.885 173.956 167.407C175.85 154.276 165.664 142.969 152.892 142.969ZM174.73 32.8855C174.73 43.6875 166.482 52.598 155.954 53.6539C162.742 49.2289 167.242 41.575 167.242 32.8855C167.242 24.1961 162.742 16.5422 155.955 12.1176C166.482 13.173 174.73 22.084 174.73 32.8855ZM121.588 32.8855C121.588 21.3758 130.952 12.0117 142.462 12.0117C153.972 12.0117 163.336 21.3758 163.336 32.8855C163.336 44.3957 153.972 53.7594 142.462 53.7594C130.952 53.7594 121.588 44.3953 121.588 32.8855ZM92.6231 92.298C92.6231 78.6102 84.8633 66.7027 73.5133 60.7375C89.4965 62.359 102.011 75.8941 102.011 92.298C102.011 108.702 89.4965 122.238 73.5133 123.859C84.8629 117.894 92.6231 105.986 92.6231 92.298ZM126.028 164.233C126.028 154.683 133.798 146.913 143.348 146.913C152.898 146.913 160.668 154.683 160.668 164.233C160.668 173.783 152.898 181.553 143.348 181.553C133.798 181.553 126.028 173.783 126.028 164.233ZM155.969 181.288C161.186 177.416 164.575 171.214 164.575 164.233C164.575 157.252 161.186 151.05 155.969 147.179C164.093 148.604 170.289 155.706 170.289 164.233C170.289 172.759 164.094 179.862 155.969 181.288Z" fill="#244E2B"/>
<path d="M73.4576 159.755C71.9967 159.755 70.5361 159.199 69.424 158.087C67.1998 155.863 67.1998 152.244 69.424 150.02C71.6482 147.796 75.267 147.795 77.4912 150.02C79.7154 152.244 79.7154 155.863 77.4912 158.087C76.3791 159.199 74.9186 159.755 73.4576 159.755ZM73.4576 152.256C72.9971 152.256 72.5369 152.431 72.1861 152.782C71.485 153.483 71.485 154.624 72.1861 155.325C72.8873 156.025 74.0275 156.025 74.7287 155.325C75.4299 154.624 75.4299 153.483 74.7287 152.782C74.3783 152.432 73.9178 152.256 73.4576 152.256Z" fill="#2E9C3E"/>
<path d="M174.904 113.005C172.875 113.005 170.845 111.931 169.751 109.785C169.638 109.564 169.544 109.333 169.472 109.096C168.552 106.086 170.014 103.036 173.068 101.858C174.268 101.395 175.61 101.41 176.806 101.885C179.208 102.839 180.608 104.964 180.608 107.303C180.608 108.827 180.014 110.259 178.936 111.337V111.336V111.337C177.825 112.448 176.364 113.005 174.904 113.005ZM174.931 105.506C174.471 105.506 174.011 105.682 173.66 106.032C173.32 106.372 173.133 106.823 173.133 107.303C173.133 107.784 173.32 108.235 173.66 108.575C174.361 109.276 175.502 109.275 176.202 108.575V108.575C176.542 108.235 176.729 107.784 176.729 107.303C176.729 106.823 176.542 106.372 176.202 106.032C175.852 105.682 175.392 105.506 174.931 105.506Z" fill="#2E9C3E"/>
<path d="M103.962 162.109H102.766V160.913C102.766 159.975 102.137 159.112 101.217 158.927C99.9615 158.676 98.8596 159.629 98.8596 160.84V162.109H97.6635C96.7244 162.109 95.8615 162.738 95.6771 163.659C95.426 164.915 96.3795 166.016 97.59 166.016H98.8596V167.212C98.8596 168.15 99.4881 169.013 100.408 169.198C101.664 169.449 102.766 168.496 102.766 167.285V166.016H104.035C105.245 166.016 106.199 164.915 105.948 163.659C105.764 162.739 104.901 162.109 103.962 162.109Z" fill="#2E9C3E"/>
<path d="M189.118 91.7968H187.922V90.6007C187.922 89.662 187.293 88.7991 186.373 88.6148C185.118 88.3632 184.016 89.3163 184.016 90.5273V91.7968H182.82C181.881 91.7968 181.018 92.4257 180.833 93.3468C180.582 94.6023 181.536 95.703 182.746 95.703H184.016V96.8991C184.016 97.8378 184.644 98.7007 185.565 98.8851C186.82 99.1366 187.922 98.1835 187.922 96.9726V95.703H189.191C190.402 95.703 191.355 94.6023 191.104 93.3468C190.92 92.4261 190.057 91.7968 189.118 91.7968Z" fill="#2E9C3E"/>
<path d="M93.0243 39.0624H91.8282V37.8663C91.8282 36.9277 91.1997 36.0648 90.2794 35.8804C89.0239 35.6288 87.922 36.582 87.922 37.7929V39.0624H86.7259C85.7868 39.0624 84.9239 39.6917 84.7395 40.6124C84.4888 41.8679 85.4419 42.9687 86.6524 42.9687H87.922V44.1648C87.922 45.1034 88.5505 45.9663 89.4708 46.1507C90.7263 46.4023 91.8282 45.4491 91.8282 44.2382V42.9687H93.0977C94.3079 42.9687 95.2614 41.8679 95.0106 40.6124C94.8266 39.6917 93.9634 39.0624 93.0243 39.0624Z" fill="#2E9C3E"/>
<path d="M145.829 162.108H145.344V158.202H147.604C148.543 158.202 149.406 157.573 149.59 156.652C149.842 155.397 148.888 154.296 147.677 154.296H145.344V153.542C145.344 152.601 144.713 151.735 143.79 151.555C142.536 151.309 141.438 152.251 141.438 153.447V154.296H141.061C138.149 154.296 135.585 156.42 135.259 159.313C134.875 162.725 137.578 165.624 140.952 165.624H141.438V169.53H139.178C138.239 169.53 137.375 170.159 137.192 171.08C136.941 172.336 137.894 173.436 139.104 173.436H141.438V174.19C141.438 175.131 142.068 175.997 142.992 176.177C144.245 176.423 145.344 175.481 145.344 174.286V173.436H145.72C148.632 173.436 151.196 171.312 151.522 168.418C151.906 165.007 149.204 162.108 145.829 162.108ZM140.97 161.718C139.947 161.718 139.125 160.84 139.219 159.798C139.302 158.876 140.137 158.202 141.063 158.202H141.438V161.718H140.97ZM145.72 169.53H145.344V166.015H145.812C146.834 166.015 147.656 166.892 147.562 167.934C147.48 168.856 146.645 169.53 145.72 169.53Z" fill="#244E2B"/>
<path d="M147.762 38.6708H140.337C140.547 38.1196 140.656 37.529 140.656 36.9216V34.3739H143.174C143.941 34.3739 144.667 33.9395 144.955 33.2294C145.528 31.8153 144.504 30.4677 143.165 30.4677H140.656V27.9638C140.656 27.1571 141.112 26.3954 141.856 26.0821C143.383 25.4391 144.855 26.5626 144.833 28.0169C144.822 28.7981 145.306 29.5247 146.038 29.7989C147.429 30.3204 148.74 29.3063 148.74 27.9852C148.74 23.9446 144.721 20.8243 140.471 22.4122C138.205 23.2587 136.75 25.4833 136.75 27.902V30.4677H136.365C135.599 30.4677 134.872 30.902 134.585 31.6122C134.011 33.0263 135.036 34.3739 136.375 34.3739H136.75V37.0528C136.75 37.2364 136.683 37.4181 136.548 37.5423C135.19 38.7899 135.237 41.0743 137.115 42.2821C137.431 42.4852 137.806 42.577 138.181 42.577H148.114C148.533 42.577 148.937 42.3911 149.19 42.0583C150.421 40.4458 149.299 38.6708 147.762 38.6708Z" fill="#244E2B"/>
<path d="M69.2537 84.7917C68.9635 80.1245 64.9392 76.562 60.2631 76.562H59.4072V75.6089C59.4072 74.6695 58.7775 73.8054 57.856 73.6222C56.6017 73.3734 55.501 74.3214 55.501 75.5261V76.562H52.7666V75.5948C52.7666 74.6562 52.1381 73.7933 51.2178 73.6089C49.9623 73.3573 48.8603 74.3105 48.8603 75.5214V76.562H46.931C45.992 76.562 45.1287 77.1909 44.9447 78.112C44.6935 79.3675 45.6474 80.4683 46.8576 80.4683H48.8603V103.906H46.931C45.992 103.906 45.1287 104.535 44.9447 105.456C44.6935 106.711 45.6474 107.812 46.8576 107.812H48.8603V108.779C48.8603 109.718 49.4888 110.581 50.4092 110.765C51.6646 111.017 52.7666 110.064 52.7666 108.853V107.812H55.501V108.765C55.501 109.705 56.1303 110.569 57.0521 110.751C58.3068 111 59.4072 110.052 59.4072 108.848V107.812H60.2631C64.9388 107.812 68.9627 104.25 69.2537 99.5835C69.4396 96.5984 68.1162 93.9058 65.9732 92.1866C68.1158 90.4683 69.4392 87.7765 69.2537 84.7917ZM60.2896 103.906H52.7666V94.1402H60.4549C63.2959 94.1402 65.5779 96.5792 65.3174 99.473C65.0885 102.016 62.8431 103.906 60.2896 103.906ZM52.7666 90.2335V80.4683H60.29C62.8439 80.4683 65.0892 82.3589 65.3178 84.9023C65.5775 87.7956 63.2959 90.2339 60.4553 90.2339L52.7666 90.2335Z" fill="#244E2B"/>
</g>
<defs>
<clipPath id="clip0_0_8252">
<rect width="200" height="200" fill="white"/>
</clipPath>
</defs>
</svg>
